<?xml version="1.0" standalone="no"?>
<!DOCTYPE svg PUBLIC "-//W3C//DTD SVG 20010904//EN"
 "http://www.w3.org/TR/2001/REC-SVG-20010904/DTD/svg10.dtd">
<svg version="1.0" xmlns="http://www.w3.org/2000/svg"
 width="1024.000000pt" height="1536.000000pt" viewBox="0 0 1024.000000 1536.000000"
 preserveAspectRatio="xMidYMid meet">

<g transform="translate(0.000000,1536.000000) scale(0.100000,-0.100000)"
fill="#000000" stroke="none">
<path d="M4455 8982 c-113 -39 -165 -108 -173 -228 -6 -99 10 -153 64 -213 72
-80 91 -84 376 -87 159 -2 255 -7 268 -14 29 -16 60 -69 60 -105 0 -39 -33
-93 -66 -105 -14 -6 -167 -10 -360 -10 l-334 0 0 -75 0 -76 373 3 374 3 48 30
c27 17 63 50 79 73 26 37 30 52 34 131 3 53 0 103 -7 124 -22 64 -68 117 -129
145 -56 26 -62 27 -297 30 -142 2 -251 7 -268 14 -77 30 -75 173 3 213 24 12
84 15 359 15 l330 0 -3 70 -3 69 -339 5 c-302 4 -344 3 -389 -12z"/>
<path d="M5465 8990 c-2 -3 -4 -211 -4 -463 l-1 -457 80 0 80 0 0 463 0 462
-76 0 c-42 0 -77 -2 -79 -5z"/>
<path d="M6095 8945 c-111 -91 -410 -349 -417 -360 -24 -33 -29 -27 398 -438
l81 -78 110 3 110 3 -229 215 c-126 118 -242 227 -260 241 l-31 26 70 55 c38
31 130 109 204 174 74 66 156 137 182 159 26 22 47 42 47 45 0 3 -46 5 -102 5
l-103 0 -60 -50z"/>
<path d="M6604 8991 c-2 -2 -4 -211 -4 -463 l0 -458 80 0 80 0 0 463 0 462
-76 0 c-42 0 -78 -2 -80 -4z"/>
<path d="M7100 8533 l0 -463 405 0 405 0 0 75 0 75 -330 0 -330 0 0 388 0 388
-75 -1 -75 0 0 -462z"/>
<path d="M8170 8530 l0 -460 420 0 420 0 0 75 0 75 -340 0 -340 0 0 385 0 385
-80 0 -80 0 0 -460z"/>
<path d="M802 8100 c0 -14 2 -19 5 -12 2 6 2 18 0 25 -3 6 -5 1 -5 -13z"/>
<path d="M793 7940 c0 -47 2 -66 4 -42 2 23 2 61 0 85 -2 23 -4 4 -4 -43z"/>
<path d="M797 7775 c3 -38 9 -88 13 -110 5 -24 6 -7 3 45 -4 47 -10 96 -14
110 -4 14 -5 -6 -2 -45z"/>
<path d="M7975 7750 c3 -4 -13 -6 -34 -3 -42 6 -154 -26 -187 -53 -17 -14 -17
-15 -1 -10 11 4 16 2 12 -5 -4 -5 -14 -7 -24 -4 -11 3 -27 -5 -43 -22 -35 -38
-62 -82 -55 -90 4 -3 11 5 16 18 6 14 10 17 10 9 1 -9 -3 -20 -9 -26 -5 -5
-14 -45 -19 -89 l-10 -80 4 80 c2 49 0 70 -5 55 -22 -70 -1 -192 43 -242 23
-27 45 -39 32 -18 -3 6 -1 10 5 10 7 0 10 -7 7 -15 -4 -9 5 -22 22 -35 42 -29
122 -62 138 -56 8 3 12 2 9 -3 -3 -4 29 -18 72 -30 168 -49 222 -92 222 -178
0 -84 -97 -153 -215 -153 -74 0 -163 26 -222 65 -29 19 -57 35 -63 35 -6 0
-22 -11 -35 -25 -19 -18 -25 -35 -25 -66 0 -36 6 -48 39 -79 59 -57 163 -91
290 -98 167 -8 273 27 352 117 48 54 69 121 69 221 0 62 -5 86 -26 129 -38 75
-95 109 -293 175 -130 43 -170 61 -198 88 -33 31 -34 36 -31 85 5 60 23 85 83
115 76 39 233 18 285 -37 24 -25 47 -34 34 -13 -4 7 -3 8 5 4 6 -4 9 -11 6
-16 -3 -5 6 -12 20 -16 38 -9 72 18 80 65 13 76 -44 135 -165 171 -70 20 -204
34 -195 20z m-65 -20 c-14 -4 -34 -8 -45 -8 -16 0 -15 2 5 8 14 4 34 8 45 8
16 0 15 -2 -5 -8z m158 3 c-10 -2 -26 -2 -35 0 -10 3 -2 5 17 5 19 0 27 -2 18
-5z m91 -9 c10 -9 -45 -3 -59 6 -11 7 -5 8 20 4 19 -4 37 -8 39 -10z m-323
-13 c-4 -5 0 -12 6 -14 7 -3 -4 -5 -25 -4 -37 0 -38 1 -15 13 27 16 41 18 34
5z m364 -1 c8 -5 11 -10 5 -10 -5 0 -17 5 -25 10 -8 5 -10 10 -5 10 6 0 17 -5
25 -10z m55 -30 c3 -5 1 -10 -4 -10 -6 0 -11 5 -11 10 0 6 2 10 4 10 3 0 8 -4
11 -10z m-547 -49 c-13 -15 -25 -27 -26 -25 -6 4 32 53 41 54 5 0 -2 -13 -15
-29z m142 -75 c0 -3 -4 -8 -10 -11 -5 -3 -10 -1 -10 4 0 6 5 11 10 11 6 0 10
-2 10 -4z m-26 -41 c-4 -8 -8 -15 -10 -15 -2 0 -4 7 -4 15 0 8 4 15 10 15 5 0
7 -7 4 -15z m-17 -62 c-3 -10 -5 -4 -5 12 0 17 2 24 5 18 2 -7 2 -21 0 -30z
m18 -73 c3 -6 -1 -7 -9 -4 -18 7 -21 14 -7 14 6 0 13 -4 16 -10z m40 -40 c3
-6 -1 -7 -9 -4 -18 7 -21 14 -7 14 6 0 13 -4 16 -10z"/>
<path d="M4418 7743 c7 -3 16 -2 19 1 4 3 -2 6 -13 5 -11 0 -14 -3 -6 -6z"/>
<path d="M5670 7745 c0 -7 30 -13 34 -7 3 4 -4 9 -15 9 -10 1 -19 0 -19 -2z"/>
<path d="M6162 7733 c48 -2 129 -2 180 0 51 1 12 3 -87 3 -99 0 -141 -2 -93
-3z"/>
<path d="M6843 7733 c9 -2 23 -2 30 0 6 3 -1 5 -18 5 -16 0 -22 -2 -12 -5z"/>
<path d="M7003 7733 c15 -2 37 -2 50 0 12 2 0 4 -28 4 -27 0 -38 -2 -22 -4z"/>
<path d="M8880 7726 c-30 -7 -77 -24 -105 -38 -65 -34 -148 -107 -141 -124 3
-8 0 -13 -6 -11 -16 3 -70 -89 -92 -154 -9 -30 -22 -90 -28 -134 -14 -102 6
-235 49 -328 38 -81 126 -175 200 -215 100 -52 158 -62 382 -62 221 0 255 7
267 56 8 33 -1 103 -16 118 -7 7 -80 11 -228 11 l-217 0 -67 33 c-80 39 -129
93 -159 171 -30 81 -24 232 13 312 31 68 79 117 144 150 46 22 62 24 276 29
167 4 230 8 240 18 8 8 13 38 13 78 0 104 -1 104 -259 103 -127 0 -233 -6
-266 -13z m300 -106 c0 -5 -7 -10 -16 -10 -8 0 -12 5 -9 10 3 6 10 10 16 10 5
0 9 -4 9 -10z"/>
<path d="M5614 7714 c-18 -14 -18 -15 4 -4 12 6 22 13 22 15 0 8 -5 6 -26 -11z"/>
<path d="M6018 7723 c6 -2 18 -2 25 0 6 3 1 5 -13 5 -14 0 -19 -2 -12 -5z"/>
<path d="M6480 7726 c0 -2 7 -7 16 -10 8 -3 12 -2 9 4 -6 10 -25 14 -25 6z"/>
<path d="M6798 7723 c7 -3 16 -2 19 1 4 3 -2 6 -13 5 -11 0 -14 -3 -6 -6z"/>
<path d="M7088 7723 c6 -2 18 -2 25 0 6 3 1 5 -13 5 -14 0 -19 -2 -12 -5z"/>
<path d="M5960 7710 c-18 -12 -2 -12 25 0 13 6 15 9 5 9 -8 0 -22 -4 -30 -9z"/>
<path d="M6746 7711 c-4 -5 3 -7 14 -4 23 6 26 13 6 13 -8 0 -17 -4 -20 -9z"/>
<path d="M7180 7697 c92 -38 192 -114 163 -124 -7 -3 -13 -10 -13 -16 0 -8 3
-8 12 1 9 9 15 9 26 -1 35 -28 -8 31 -49 67 -41 38 -151 96 -179 96 -8 0 10
-11 40 -23z"/>
<path d="M6701 7674 c-12 -15 -21 -32 -21 -38 0 -6 6 -2 12 9 6 11 18 28 26
38 8 9 12 17 9 17 -3 0 -15 -12 -26 -26z"/>
<path d="M5549 7663 l-24 -28 28 24 c15 14 27 26 27 28 0 8 -8 1 -31 -24z"/>
<path d="M5843 7644 l-28 -25 33 22 c17 13 32 24 32 26 0 8 -11 1 -37 -23z"/>
<path d="M6523 7635 c0 -22 2 -30 4 -17 2 12 2 30 0 40 -3 9 -5 -1 -4 -23z"/>
<path d="M7103 7618 c-24 -32 -26 -40 -6 -34 14 4 20 2 20 -9 0 -8 -1 -15 -1
-15 -1 0 -21 6 -46 14 -69 21 -165 29 -188 17 -15 -8 -21 -8 -24 1 -2 6 -4 -6
-5 -27 -1 -35 0 -36 11 -14 11 23 17 24 103 23 78 0 99 -4 147 -28 150 -73
182 -244 65 -338 -21 -17 -36 -35 -32 -41 3 -6 1 -7 -6 -3 -6 4 -18 2 -26 -4
-18 -15 -20 -34 -3 -24 7 4 8 3 4 -5 -4 -6 -11 -9 -16 -6 -12 8 -33 -33 -24
-47 4 -6 3 -8 -3 -5 -25 16 -31 -108 -9 -171 49 -138 198 -242 348 -242 53 0
59 2 68 25 18 48 -3 77 -81 108 -38 16 -83 40 -100 54 -76 64 -89 166 -30 227
17 18 28 36 24 41 -5 4 -3 5 4 1 18 -10 88 58 112 107 20 40 41 169 27 155 -4
-3 -11 -37 -16 -73 -5 -37 -14 -72 -20 -79 -8 -8 -9 -4 -1 17 21 54 6 145 -18
108 -7 -11 -10 -10 -15 6 -6 19 -36 28 -36 11 0 -5 -15 -7 -32 -4 -22 4 -27 3
-14 -2 18 -8 19 -9 2 -15 -15 -6 -17 -14 -12 -40 4 -20 3 -27 -3 -18 -7 11
-10 10 -14 -5 -3 -10 -4 -3 -2 16 7 65 12 135 7 116 -3 -14 -9 -6 -25 28 -15
31 -39 58 -72 82 -45 33 -47 36 -20 30 28 -5 28 -5 7 6 -13 6 -21 17 -18 25 3
7 2 12 -2 12 -26 -4 -34 1 -22 16 7 8 10 15 7 15 -2 0 -9 -6 -14 -12z m137
-372 c0 -8 -18 -29 -40 -46 -22 -17 -40 -28 -40 -23 0 4 16 19 35 33 19 14 35
31 35 38 0 17 10 15 10 -2z m143 -30 c3 -8 -2 -20 -11 -27 -14 -11 -15 -11 -5
0 6 7 9 20 6 27 -3 8 -3 14 0 14 3 0 7 -6 10 -14z m-43 -60 c0 -2 -8 -10 -17
-17 -16 -13 -17 -12 -4 4 13 16 21 21 21 13z m-273 -168 c-2 -13 -4 -5 -4 17
-1 22 1 32 4 23 2 -10 2 -28 0 -40z"/>
<path d="M822 7600 c0 -14 2 -19 5 -12 2 6 2 18 0 25 -3 6 -5 1 -5 -13z"/>
<path d="M5499 7603 c-13 -16 -12 -17 4 -4 16 13 21 21 13 21 -2 0 -10 -8 -17
-17z"/>
<path d="M961 7583 c-1 -12 -7 -24 -13 -26 -10 -4 -10 -6 0 -6 20 -1 14 -17
-8 -18 -11 -1 -19 3 -17 9 3 15 -15 19 -33 8 -12 -7 -13 -13 -3 -28 6 -11 8
-24 3 -32 -5 -8 -6 -18 -4 -22 3 -4 0 -8 -6 -8 -7 0 -9 7 -6 16 3 8 2 13 -3 9
-5 -3 -12 9 -16 26 -4 17 -9 28 -12 25 -3 -2 2 -27 12 -55 11 -33 21 -48 29
-45 8 3 16 -4 19 -15 3 -12 13 -21 24 -22 17 0 17 -1 -1 -8 -17 -7 -17 -8 -2
-23 9 -9 16 -25 17 -35 0 -10 9 -31 19 -48 10 -16 30 -52 44 -80 20 -38 21
-44 6 -25 -11 14 -41 66 -67 117 -26 50 -49 90 -51 88 -11 -11 126 -248 139
-240 5 4 6 0 3 -8 -3 -8 3 -20 12 -28 12 -9 15 -10 10 -1 -4 6 -2 12 3 12 6 0
10 -10 8 -22 -1 -14 4 -23 13 -23 8 -1 14 -7 12 -14 -4 -17 48 -72 59 -65 5 3
6 -1 3 -9 -6 -17 144 -149 159 -140 6 3 7 1 3 -5 -7 -11 108 -95 207 -151 l58
-33 67 45 c125 85 297 222 297 237 0 8 7 14 16 12 8 -1 28 12 45 29 18 19 22
28 11 24 -9 -4 -17 -3 -17 3 0 6 10 9 22 7 22 -5 68 34 229 187 36 35 51 51
34 36 -29 -27 -52 -37 -41 -20 9 15 -12 35 -41 37 -39 4 -41 5 -18 15 19 8 19
9 -2 9 -12 1 -24 -5 -26 -11 -4 -10 -6 -10 -6 0 -1 7 -15 12 -36 12 -28 0 -35
-4 -35 -20 0 -15 -6 -19 -24 -18 -14 1 -23 5 -21 8 11 18 -19 35 -63 37 -45 1
-54 -2 -101 -44 -28 -24 -55 -41 -61 -38 -14 9 -1 27 16 21 9 -3 11 0 7 11 -5
12 -3 14 7 8 10 -6 12 -4 7 8 -3 9 -3 16 1 15 14 -3 42 14 36 23 -3 5 2 6 10
3 11 -4 16 0 16 11 0 10 -5 15 -14 12 -7 -3 -19 0 -25 6 -9 9 -14 9 -20 -1 -7
-11 -10 -10 -14 3 -5 12 -16 15 -47 12 -31 -3 -40 -1 -41 12 0 11 -2 12 -6 3
-3 -7 0 -19 7 -26 9 -11 7 -16 -9 -21 -12 -3 -21 -11 -21 -16 0 -5 -7 -9 -16
-9 -9 0 -12 -5 -8 -12 4 -7 3 -8 -4 -4 -7 4 -12 3 -12 -1 0 -12 -90 -86 -97
-80 -2 3 19 29 49 58 29 29 52 56 50 62 -1 5 2 15 8 22 16 19 20 75 5 75 -7 0
-15 -7 -19 -15 -3 -8 -13 -15 -22 -15 -10 0 -14 5 -10 15 4 11 -2 15 -24 15
-17 0 -30 -4 -30 -10 0 -5 5 -10 12 -10 9 0 9 -3 0 -12 -7 -7 -22 -13 -35 -13
-12 0 -21 -5 -20 -10 1 -6 -8 -12 -19 -12 -12 -1 -31 -11 -42 -23 -20 -20 -20
-21 -1 -14 11 4 17 4 13 0 -3 -4 -13 -8 -21 -10 -15 -2 -78 -47 -109 -78 -9
-9 -20 -13 -23 -9 -3 5 7 20 21 32 109 101 124 118 124 143 0 14 -6 26 -12 26
-9 0 -8 4 2 10 14 9 7 15 -14 11 -5 -1 -4 4 2 11 8 11 7 14 -8 14 -11 0 -17
-2 -15 -5 3 -2 -3 -10 -13 -18 -9 -8 -11 -12 -5 -8 8 4 11 1 7 -9 -6 -15 -27
-12 -51 7 -9 6 -16 1 -23 -18 -8 -22 -12 -24 -23 -13 -8 7 -17 20 -21 28 -3 9
-5 6 -2 -7 2 -12 -2 -24 -10 -27 -9 -4 -14 -21 -13 -53 1 -39 3 -43 9 -23 5
15 6 -3 2 -43 -5 -63 -4 -67 14 -61 18 5 18 5 2 -9 -10 -8 -18 -21 -18 -30 0
-23 -20 -32 -21 -10 -1 10 -3 68 -5 128 -2 61 -4 118 -4 128 -1 14 -5 15 -22
6 -18 -10 -20 -9 -15 5 4 11 0 19 -11 23 -9 4 -25 17 -35 30 -10 13 -23 21
-28 18 -5 -4 -9 -2 -9 3 0 5 -11 7 -25 4 -14 -2 -25 -8 -25 -11 0 -4 -7 -8
-15 -8 -8 0 -15 4 -15 9 0 9 -117 4 -127 -5 -13 -14 -23 -6 -23 18 0 30 26 34
47 8 8 -10 12 -13 9 -6 -4 6 -2 14 4 18 5 3 10 2 10 -3 0 -5 7 -9 15 -9 8 0
15 4 15 9 0 8 -21 12 -50 9 -10 -1 -7 5 8 18 18 16 20 21 9 28 -8 4 -17 15
-20 23 -4 10 -6 8 -6 -7z m220 -136 c-7 -7 -15 -6 -24 1 -8 7 -16 11 -18 9 -2
-1 2 4 10 10 18 16 48 -4 32 -20z m39 -27 c0 -5 -5 -10 -11 -10 -5 0 -7 5 -4
10 3 6 8 10 11 10 2 0 4 -4 4 -10z m245 -70 c3 -6 -1 -7 -9 -4 -18 7 -21 14
-7 14 6 0 13 -4 16 -10z m675 -84 c0 -2 -7 -9 -15 -16 -13 -11 -14 -10 -9 4 5
14 24 23 24 12z m90 -71 c0 0 -16 -17 -37 -36 -20 -18 -32 -27 -28 -19 5 8 17
21 27 28 10 7 16 17 14 21 -3 4 1 8 9 8 8 0 15 -1 15 -2z m-385 -38 c14 5 17
3 12 -10 -3 -8 -1 -18 6 -21 7 -3 3 -4 -8 -1 -11 2 -27 0 -35 -5 -13 -9 -13
-10 0 -10 13 0 13 -1 0 -10 -24 -15 -29 -12 -25 18 2 15 4 29 5 32 2 3 2 9 1
14 -1 5 4 4 12 -2 8 -7 23 -9 32 -5z m-270 -7 c-3 -5 -37 -32 -75 -61 -39 -28
-70 -55 -70 -58 0 -3 -9 -12 -20 -19 -35 -22 -3 30 36 58 19 14 54 39 77 57
42 32 63 42 52 23z m570 -40 c-3 -5 -11 -10 -16 -10 -6 0 -7 5 -4 10 3 6 11
10 16 10 6 0 7 -4 4 -10z"/>
<path d="M5760 7568 c-15 -21 -17 -28 -6 -19 16 13 41 51 33 51 -2 0 -14 -15
-27 -32z"/>
<path d="M6675 7147 l0 -449 24 -19 c15 -13 39 -19 71 -19 84 0 80 -22 78 451
l-3 414 -5 -310 c-4 -255 -6 -280 -9 -140 -2 94 -6 159 -10 145 -11 -39 -20
-10 -22 67 -1 51 -5 70 -15 70 -10 0 -11 -4 -4 -12 15 -18 -27 -27 -44 -10
-11 11 -14 2 -15 -58 -2 -76 -11 -108 -11 -39 0 22 -3 43 -7 45 -5 3 -8 -11
-8 -31 -1 -21 -3 -149 -5 -287 -4 -234 -5 -221 -10 190 l-6 440 1 -448z m162
-294 c-3 -10 -5 -2 -5 17 0 19 2 27 5 18 2 -10 2 -26 0 -35z m0 -85 c-3 -8 -6
-5 -6 6 -1 11 2 17 5 13 3 -3 4 -12 1 -19z"/>
<path d="M6502 7570 c-11 -18 -27 -20 -204 -23 l-193 -2 197 -3 c191 -2 198
-1 208 19 15 27 8 34 -8 9z"/>
<path d="M1043 7563 c-7 -3 -13 -14 -13 -24 0 -11 5 -17 10 -14 6 3 10 2 10
-3 0 -5 13 -7 29 -4 27 4 28 5 13 21 -10 10 -20 16 -24 14 -3 -2 -8 1 -10 5
-1 5 -9 7 -15 5z"/>
<path d="M5459 7553 c-13 -16 -12 -17 4 -4 9 7 17 15 17 17 0 8 -8 3 -21 -13z"/>
<path d="M6058 7533 c6 -2 18 -2 25 0 6 3 1 5 -13 5 -14 0 -19 -2 -12 -5z"/>
<path d="M7387 7522 c3 -12 9 -25 14 -28 14 -8 11 10 -6 32 -13 18 -14 18 -8
-4z"/>
<path d="M1210 7520 c0 -5 7 -7 15 -4 11 4 15 -1 16 -17 l1 -24 8 25 c4 14 8
19 9 12 1 -7 6 -10 12 -6 8 4 7 9 -2 15 -19 12 -59 11 -59 -1z"/>
<path d="M4435 7500 c9 -16 18 -30 21 -30 2 0 -2 14 -11 30 -9 17 -18 30 -21
30 -2 0 2 -13 11 -30z"/>
<path d="M5720 7510 c-6 -11 -8 -20 -6 -20 3 0 10 9 16 20 6 11 8 20 6 20 -3
0 -10 -9 -16 -20z"/>
<path d="M5990 7512 c-56 -37 -101 -75 -112 -95 -6 -12 9 -2 34 23 25 25 65
55 89 67 24 13 37 23 29 22 -8 0 -26 -7 -40 -17z"/>
<path d="M1190 7506 c0 -2 7 -9 15 -16 9 -7 15 -8 15 -2 0 5 -7 12 -15 16 -8
3 -15 4 -15 2z"/>
<path d="M7286 7474 c-5 -19 -2 -32 10 -43 12 -12 18 -13 21 -3 3 6 11 12 18
12 7 0 16 7 19 16 9 24 8 27 -10 20 -9 -4 -25 1 -34 9 -16 15 -18 14 -24 -11z"/>
<path d="M2455 7418 l-40 -43 43 40 c23 21 42 40 42 42 0 8 -9 0 -45 -39z"/>
<path d="M5375 7424 c-9 -15 -12 -23 -6 -20 11 7 35 46 28 46 -3 0 -12 -12
-22 -26z"/>
<path d="M7422 7425 c0 -16 2 -22 5 -12 2 9 2 23 0 30 -3 6 -5 -1 -5 -18z"/>
<path d="M4480 7420 c6 -11 13 -20 16 -20 2 0 0 9 -6 20 -6 11 -13 20 -16 20
-2 0 0 -9 6 -20z"/>
<path d="M7396 7417 c3 -10 9 -15 12 -12 3 3 0 11 -7 18 -10 9 -11 8 -5 -6z"/>
<path d="M5661 7379 c-6 -18 -11 -37 -10 -43 0 -6 7 7 15 28 8 22 12 41 10 43
-2 2 -9 -10 -15 -28z"/>
<path d="M2482 7230 c-153 -148 -171 -169 -152 -175 12 -4 19 -9 17 -12 -3 -2
-15 1 -27 7 -20 11 -27 8 -59 -24 -19 -20 -30 -36 -23 -36 6 0 12 5 12 10 0 6
5 10 11 10 8 0 7 -5 -1 -15 -7 -9 -20 -13 -28 -10 -15 5 -99 -63 -94 -77 1 -5
-3 -7 -10 -6 -7 2 -12 -4 -13 -12 -1 -8 -6 -14 -13 -12 -16 3 -147 -96 -147
-111 -1 -7 -7 -11 -13 -9 -14 3 -124 -72 -122 -83 1 -4 -2 -10 -6 -13 -4 -4
-4 -1 0 6 4 6 5 12 3 12 -14 0 -152 -92 -150 -100 2 -5 -5 -6 -14 -3 -12 5
-14 3 -8 -7 5 -8 4 -11 -3 -6 -6 4 -37 -6 -69 -22 -186 -94 -415 -120 -508
-56 -40 27 -50 30 -39 12 4 -7 -2 -4 -14 6 -26 22 -30 35 -5 15 9 -8 14 -9 12
-4 -3 6 -15 32 -28 59 -20 41 -22 61 -19 136 2 57 0 83 -6 72 -10 -18 -9 -168
1 -186 4 -6 -1 -5 -10 3 -16 12 -17 9 -17 -34 0 -147 82 -219 250 -220 85 0
182 14 175 26 -3 5 1 6 9 3 33 -13 204 58 360 149 l70 40 90 -18 c130 -26 317
-30 446 -11 121 19 273 62 265 76 -3 6 0 7 8 5 7 -3 49 11 92 30 61 28 76 39
65 46 -12 8 -10 9 6 5 40 -12 248 148 368 283 59 65 59 65 -22 -14 -80 -77
-82 -79 -82 -50 0 23 3 27 10 15 6 -9 10 -10 10 -3 0 18 -41 43 -72 43 -16 0
-28 -5 -28 -11 0 -8 -4 -8 -13 -1 -14 12 -99 4 -92 -9 3 -4 0 -11 -6 -15 -7
-4 -9 -3 -5 4 3 6 1 14 -5 17 -5 4 -8 14 -4 24 3 9 -13 -3 -36 -26 -39 -40
-46 -43 -98 -44 -31 -1 -67 -2 -81 -4 -14 -1 -62 -2 -106 -3 l-81 -2 -79 -71
c-44 -39 -92 -77 -109 -85 -26 -13 -25 -10 10 18 22 18 63 57 91 86 28 28 56
52 62 52 6 0 12 5 14 12 5 15 27 18 131 19 48 1 87 5 87 9 0 5 13 5 28 1 19
-6 37 -4 53 5 13 7 32 13 41 14 9 0 20 5 24 12 5 7 2 9 -7 4 -8 -4 -7 -1 2 6
15 12 15 15 1 28 -12 10 -17 11 -20 2 -2 -7 -15 -12 -29 -12 -18 0 -24 4 -20
14 4 10 1 13 -7 10 -10 -4 -12 2 -9 20 3 16 1 26 -6 26 -7 0 -9 -5 -5 -12 5
-8 2 -9 -10 -5 -25 10 -40 -2 -25 -19 10 -12 9 -13 -7 -7 -17 6 -18 5 -4 -13
14 -18 14 -18 -2 -5 -10 7 -15 18 -12 23 4 7 -9 9 -35 6 -35 -3 -40 -1 -36 13
8 23 -10 32 -36 18 -15 -8 -19 -8 -15 0 9 14 0 14 -25 0 -25 -13 -53 6 -46 33
3 11 0 18 -10 18 -9 0 -11 -5 -7 -12 5 -9 3 -9 -9 1 -18 14 -13 36 5 25 6 -4
8 -2 5 4 -4 5 5 21 20 35 39 34 229 227 223 226 -3 0 -83 -76 -178 -169z m-94
-127 c-2 -13 3 -17 17 -15 19 2 19 2 1 -9 -15 -9 -16 -13 -5 -21 11 -8 11 -9
-1 -5 -8 2 -14 10 -12 16 1 6 -7 11 -19 11 -13 0 -18 -4 -13 -12 5 -7 3 -8 -5
-3 -9 5 -7 13 10 31 27 29 31 30 27 7z m-84 -94 c-8 -14 -21 -11 -21 5 0 8 6
12 14 9 7 -3 10 -9 7 -14z m207 4 c13 -16 12 -17 -3 -4 -10 7 -18 15 -18 17 0
8 8 3 21 -13z m129 -27 c0 -2 -7 -6 -15 -10 -8 -3 -15 -1 -15 4 0 6 7 10 15
10 8 0 15 -2 15 -4z m93 -6 c7 0 6 -4 -3 -10 -19 -12 -33 -13 -26 -1 4 5 3 11
-1 14 -5 2 -2 2 5 0 8 -1 19 -3 25 -3z m-132 -28 c-7 -2 -18 1 -23 6 -8 8 -4
9 13 5 13 -4 18 -8 10 -11z m428 -78 c-17 -17 -72 -27 -63 -12 3 5 12 7 20 4
8 -3 14 -1 14 4 0 7 7 11 40 19 2 0 -3 -6 -11 -15z m-79 -65 c-19 -16 -44 -34
-55 -40 -18 -9 -19 -9 -3 4 10 8 14 18 10 22 -4 5 -2 5 5 1 7 -3 20 4 30 18
10 14 25 25 33 25 9 0 1 -12 -20 -30z m-80 -54 c0 -2 -10 -9 -22 -15 -22 -11
-22 -10 -4 4 21 17 26 19 26 11z m-1913 -242 c-3 -10 -5 -2 -5 17 0 19 2 27 5
18 2 -10 2 -26 0 -35z m78 -121 c-5 -6 -45 23 -50 36 -3 7 8 3 24 -10 15 -13
27 -24 26 -26z m152 42 c-3 -3 -12 -4 -19 -1 -8 3 -5 6 6 6 11 1 17 -2 13 -5z"/>
<path d="M4510 7370 c6 -11 13 -20 16 -20 2 0 0 9 -6 20 -6 11 -13 20 -16 20
-2 0 0 -9 6 -20z"/>
<path d="M5331 7350 c-12 -22 -20 -40 -18 -40 7 0 48 72 44 76 -2 2 -14 -14
-26 -36z"/>
<path d="M6745 7350 c3 -5 8 -10 11 -10 2 0 4 5 4 10 0 6 -5 10 -11 10 -5 0
-7 -4 -4 -10z"/>
<path d="M2364 7324 c-18 -14 -18 -15 4 -4 12 6 22 13 22 15 0 8 -5 6 -26 -11z"/>
<path d="M5437 7295 c-24 -50 -20 -58 4 -12 11 22 19 41 17 43 -3 2 -12 -12
-21 -31z"/>
<path d="M5642 7290 c0 -19 2 -27 5 -17 2 9 2 25 0 35 -3 9 -5 1 -5 -18z"/>
<path d="M5826 7305 c-3 -9 -6 -22 -5 -28 0 -7 5 -1 10 12 5 13 8 26 5 28 -2
2 -6 -3 -10 -12z"/>
<path d="M2215 7270 c3 -5 10 -10 16 -10 5 0 9 5 9 10 0 6 -7 10 -16 10 -8 0
-12 -4 -9 -10z"/>
<path d="M5275 7248 c-11 -24 -12 -28 -2 -16 8 10 16 16 18 13 3 -2 5 5 5 15
0 27 -3 25 -21 -12z"/>
<path d="M6182 7260 c119 -3 171 -9 180 -18 11 -11 8 -12 -17 -6 -16 5 -41 7
-55 6 -84 -6 -146 -7 -155 -1 -5 4 -28 -1 -49 -12 -48 -23 -47 -23 -40 -4 5
11 2 13 -10 9 -9 -3 -16 -12 -16 -19 0 -7 -14 -18 -31 -24 -17 -6 -28 -14 -25
-19 3 -5 -9 -9 -27 -9 -18 0 -26 2 -19 5 23 7 12 19 -17 18 -23 -1 -28 -5 -25
-20 2 -11 -1 -25 -7 -33 -9 -10 -6 -13 15 -13 18 0 25 4 20 12 -4 7 -3 8 5 4
6 -4 8 -12 5 -18 -4 -6 2 -8 17 -4 23 7 23 7 5 -8 -11 -9 -25 -16 -32 -16 -7
0 -18 -8 -23 -17 -6 -10 -11 -12 -11 -5 0 6 -5 12 -11 12 -6 0 -9 -7 -5 -15 3
-8 1 -25 -4 -37 -8 -21 -9 -22 -11 -3 -1 11 -1 23 0 28 0 4 -6 7 -15 7 -8 0
-13 4 -10 9 3 5 -4 11 -16 14 -18 5 -19 8 -8 21 10 14 9 16 -6 17 -11 1 -23 1
-27 0 -4 -1 -10 6 -13 14 -4 8 -12 15 -19 15 -7 0 -15 7 -19 15 -3 8 -11 15
-18 15 -10 0 -9 -3 1 -9 11 -7 12 -13 3 -23 -6 -8 -10 -27 -9 -44 1 -20 -2
-28 -12 -26 -10 2 -12 -4 -6 -25 4 -15 9 -53 10 -84 3 -61 29 -124 47 -113 7
5 8 3 3 -5 -10 -16 84 -113 103 -106 7 2 11 1 8 -4 -8 -12 41 -31 61 -25 14 5
15 4 4 -4 -10 -7 -1 -14 35 -28 41 -15 88 -18 286 -22 l237 -4 27 27 c24 24
26 32 22 81 -3 30 -10 60 -16 66 -7 7 -92 11 -264 10 -206 0 -258 3 -278 15
-17 9 -18 12 -5 8 48 -17 57 -15 20 5 -22 11 -44 25 -49 30 -17 17 -29 11 -15
-7 7 -10 1 -7 -14 6 -20 18 -25 30 -21 48 4 12 2 23 -4 23 -13 0 1 65 19 86
29 35 54 39 269 44 161 4 214 8 213 17 -2 7 4 10 12 7 10 -4 16 5 21 30 8 46
-11 95 -43 107 -13 5 -95 8 -181 7 l-157 -2 167 -6z m138 -39 c0 -4 -7 -8 -15
-8 -16 0 -20 9 -9 20 8 8 24 -1 24 -12z m-40 5 c0 -2 -8 -10 -17 -17 -16 -13
-17 -12 -4 4 13 16 21 21 21 13z m105 -24 c-8 -8 -25 10 -19 20 4 6 9 5 15 -3
4 -7 6 -15 4 -17z m-118 -54 c-10 -15 -12 -15 -23 0 -16 22 1 47 21 29 9 -8 9
-16 2 -29z m-94 -35 c-40 -2 -106 -2 -145 0 -40 1 -8 3 72 3 80 0 112 -2 73
-3z m140 0 c-7 -2 -19 -2 -25 0 -7 3 -2 5 12 5 14 0 19 -2 13 -5z m-210 -290
c-7 -2 -21 -2 -30 0 -10 3 -4 5 12 5 17 0 24 -2 18 -5z m-283 -60 c0 -7 -39
17 -46 28 -3 6 5 3 20 -6 14 -10 26 -19 26 -22z m677 -35 c-3 -7 -5 -2 -5 12
0 14 2 19 5 13 2 -7 2 -19 0 -25z m-424 -55 c-7 -2 -21 -2 -30 0 -10 3 -4 5
12 5 17 0 24 -2 18 -5z"/>
<path d="M8913 7259 c-54 -16 -75 -61 -52 -112 18 -41 49 -47 225 -47 162 0
165 0 189 25 17 16 25 35 25 60 0 25 -8 44 -25 60 -24 24 -27 25 -177 24 -84
0 -167 -5 -185 -10z"/>
<path d="M5978 7253 c6 -2 18 -2 25 0 6 3 1 5 -13 5 -14 0 -19 -2 -12 -5z"/>
<path d="M4600 7210 c11 -22 23 -40 25 -40 3 0 -4 18 -15 40 -11 22 -23 40
-25 40 -3 0 4 -18 15 -40z"/>
<path d="M5633 7234 c-8 -22 3 -180 17 -237 20 -76 23 -47 5 42 -9 44 -15 110
-13 146 3 67 2 76 -9 49z"/>
<path d="M4830 7220 c6 -11 13 -20 16 -20 2 0 0 9 -6 20 -6 11 -13 20 -16 20
-2 0 0 -9 6 -20z"/>
<path d="M5403 7223 c-3 -10 -8 -22 -11 -27 -3 -5 0 -6 5 -3 11 7 25 47 17 47
-3 0 -7 -8 -11 -17z"/>
<path d="M5894 7224 c-18 -14 -18 -14 6 -3 31 14 36 19 24 19 -6 0 -19 -7 -30
-16z"/>
<path d="M5812 7210 c0 -14 2 -19 5 -12 2 6 2 18 0 25 -3 6 -5 1 -5 -13z"/>
<path d="M4865 7160 c9 -16 18 -30 21 -30 2 0 -2 14 -11 30 -9 17 -18 30 -21
30 -2 0 2 -13 11 -30z"/>
<path d="M5191 7098 c-72 -131 -88 -148 -141 -158 -39 -7 -48 -5 -67 13 -13
11 -23 16 -23 11 -1 -5 -8 4 -16 20 -12 22 -18 26 -25 15 -5 -8 -3 -17 4 -22
8 -6 8 -7 -3 -4 -8 2 -14 11 -12 19 1 11 -6 13 -29 10 -20 -3 -30 -1 -25 6 3
6 -4 9 -19 8 -19 -1 -28 -8 -32 -26 -3 -14 -11 -29 -17 -33 -8 -6 -7 -10 2
-14 6 -2 12 -17 12 -31 l0 -27 -21 25 -20 25 12 -25 c20 -42 91 -160 96 -160
3 0 -12 30 -32 66 -32 58 -34 64 -15 54 12 -6 19 -14 16 -17 -3 -3 6 -27 19
-53 13 -26 21 -50 18 -54 -9 -9 18 -37 30 -29 6 3 7 1 3 -5 -8 -14 30 -36 46
-26 6 4 8 3 5 -3 -19 -30 123 -32 171 -3 20 12 30 25 26 32 -4 7 -3 8 4 4 7
-4 22 11 38 36 31 48 177 369 171 375 -2 2 -23 -41 -47 -94 -23 -54 -43 -99
-44 -100 -2 -2 -1 25 0 60 3 56 5 62 23 59 14 -2 21 2 21 12 0 19 -13 20 -43
4 -20 -10 -21 -10 -8 5 12 15 11 16 -15 6 -42 -14 -62 -32 -74 -64 -8 -20 -14
-25 -22 -17 -7 7 -5 19 11 40 11 17 21 33 21 36 0 3 14 28 30 57 17 28 29 53
27 56 -3 2 -28 -38 -56 -89z m-47 -122 c-3 -9 -10 -16 -15 -16 -5 0 -4 9 3 20
14 22 21 20 12 -4z m-34 -46 c-8 -6 -26 -10 -40 -9 -22 0 -20 2 10 13 38 13
54 11 30 -4z m160 -7 c-1 -13 -29 -59 -30 -48 0 21 13 55 21 55 5 0 9 -3 9 -7z
m-48 -105 c-7 -27 -17 -29 -17 -4 0 13 5 23 11 23 6 0 9 -9 6 -19z m-290 -53
c0 -5 -5 -11 -11 -13 -6 -2 -11 4 -11 13 0 9 5 15 11 13 6 -2 11 -8 11 -13z
m258 -9 c0 -2 -8 -10 -17 -17 -16 -13 -17 -12 -4 4 13 16 21 21 21 13z"/>
<path d="M5825 7170 c-3 -5 -1 -10 4 -10 6 0 11 5 11 10 0 6 -2 10 -4 10 -3 0
-8 -4 -11 -10z"/>
<path d="M4669 7085 c18 -33 38 -64 44 -70 5 -5 -5 17 -23 50 -18 33 -38 65
-43 70 -6 6 4 -17 22 -50z"/>
<path d="M2453 7116 c3 -7 1 -18 -5 -24 -6 -6 -6 -12 3 -17 8 -5 10 -4 5 3 -5
8 1 11 16 9 23 -2 33 22 13 35 -17 13 -37 9 -32 -6z m25 -21 c-3 -3 -9 2 -12
12 -6 14 -5 15 5 6 7 -7 10 -15 7 -18z"/>
<path d="M3249 7113 c-13 -16 -12 -17 4 -4 9 7 17 15 17 17 0 8 -8 3 -21 -13z"/>
<path d="M4905 7090 c9 -16 18 -30 21 -30 2 0 -2 14 -11 30 -9 17 -18 30 -21
30 -2 0 2 -13 11 -30z"/>
<path d="M3214 7068 l-19 -23 23 19 c21 18 27 26 19 26 -2 0 -12 -10 -23 -22z"/>
<path d="M4945 7026 c10 -14 19 -26 22 -26 7 0 -17 39 -28 46 -6 3 -3 -5 6
-20z"/>
<path d="M4735 6970 c9 -16 18 -30 21 -30 2 0 -2 14 -11 30 -9 17 -18 30 -21
30 -2 0 2 -13 11 -30z"/>
<path d="M4982 6970 c7 -11 19 -22 28 -25 8 -4 4 5 -9 19 -29 31 -36 33 -19 6z"/>
<path d="M5870 6931 c0 -5 5 -13 10 -16 6 -3 10 -2 10 4 0 5 -4 13 -10 16 -5
3 -10 2 -10 -4z"/>
</g>
</svg>
